Coordinates
version=1
nRows=5
nColumns=40
inDegrees=yes

Units are S.I. units (second, meters, Newtons, ...)
Angles are in degrees.

endheader
time	pelvis_tilt	pelvis_list	pelvis_rotation	pelvis_tx	pelvis_ty	pelvis_tz	hip_flexion_r	hip_adduction_r	hip_rotation_r	knee_angle_r	knee_angle_r_beta	ankle_angle_r	subtalar_angle_r	mtp_angle_r	hip_flexion_l	hip_adduction_l	hip_rotation_l	knee_angle_l	knee_angle_l_beta	ankle_angle_l	subtalar_angle_l	mtp_angle_l	lumbar_extension	lumbar_bending	lumbar_rotation	arm_flex_r	arm_add_r	arm_rot_r	elbow_flex_r	pro_sup_r	wrist_flex_r	wrist_dev_r	arm_flex_l	arm_add_l	arm_rot_l	elbow_flex_l	pro_sup_l	wrist_flex_l	wrist_dev_l
      0.60000000	     -2.12848970	     -4.69008781	      4.04704524	      0.12818586	      0.92488336	      1.08891270	     28.12181465	     -1.04706411	    -15.93970967	    -27.41190033	     -0.47842791	     -5.12140208	     -7.69718047	     -2.36602892	    -10.11308747	     11.52488730	     12.98408183	    -35.77592880	     -0.62440775	    -10.94142842	     -0.92963017	    -11.12383723	      1.21554430	      3.99554578	    -11.65658796	    -12.79959161	    -11.12070964	     -8.91049445	      8.58332882	     89.95437384	      0.00000000	      0.00000000	      8.56880188	     17.68786936	      5.60672205	     64.46550986	     89.95437384	      0.00000000	      0.00000000
      0.61000000	     -2.16838830	     -5.25602961	      3.79583095	      0.14316347	      0.92597683	      1.09276985	     27.36997842	      0.25798181	    -15.06441335	    -27.70405580	     -0.48352699	     -4.23529760	     -8.72639775	     -2.48475281	     -8.26387064	     12.41423636	     12.55120750	    -39.39542286	     -0.68757984	    -12.44875305	      2.04923151	    -10.49673508	      1.50196474	      4.40828927	    -11.30948795	    -12.65237094	    -11.11500308	     -9.02891669	      8.36948840	     89.95437384	      0.00000000	      0.00000000	      7.64969581	     17.55124459	      5.93372021	     64.49650843	     89.95437384	      0.00000000	      0.00000000
      0.62000000	     -2.45258669	     -5.74228912	      3.57369173	      0.15729098	      0.92679816	      1.09613468	     26.81319748	      1.34939635	    -14.43201125	    -27.81851806	     -0.48552473	     -3.30013931	     -9.66730381	     -2.49967223	     -5.91510417	     13.09195461	     12.01867370	    -43.20072231	     -0.75399484	    -11.82234742	      5.74829631	    -10.14403971	      1.95641954	      4.75110489	    -10.96121355	    -12.40115984	    -11.12384300	     -9.30366959	      8.20872544	     89.95437384	      0.00000000	      0.00000000	      6.81758222	     17.35621530	      6.20403941	     64.35724140	     89.95437384	      0.00000000	      0.00000000
      0.63000000	     -2.36057991	     -6.33729053	      3.27825764	      0.17149582	      0.92847254	      1.09951427	     25.64585226	      2.55444184	    -14.04436493	    -27.65453376	     -0.48266267	     -1.91535454	     -9.72834775	     -2.67651619	     -4.05687920	     13.98514319	     12.13584538	    -46.64364353	     -0.81408515	    -10.22610050	      9.04264456	     -9.97274181	      1.95104025	      5.25447236	    -10.41120699	    -12.07087462	    -11.13010587	     -9.57891103	      8.09619809	     89.95437384	      0.00000000	      0.00000000	      6.09745582	     17.13604946	      6.28833791	     64.01974591	     89.95437384	      0.00000000	      0.00000000
      0.64000000	     -2.83880705	     -6.84132589	      3.24158883	      0.18475425	      0.92958675	      1.10231746	     25.14706091	      3.49540441	    -13.76657930	    -27.36547284	     -0.47761760	     -1.58423686	    -10.40883739	     -2.40096018	     -1.13082746	     14.72510155	     11.98060605	    -50.24744007	     -0.87698327	     -8.53140163	     12.61658671	     -9.15078409	      2.54791156	      5.62166548	    -10.09524217	    -11.80572470	    -11.03905978	    -10.69073980	      8.25874487	     89.95437384	      0.00000000	      0.00000000	      5.43604942	     16.78212063	      6.41371864	     63.25661856	     89.95437384	      0.00000000	      0.00000000
